<svg width="180" height="27" viewBox="0 0 180 27" fill="none" xmlns="http://www.w3.org/2000/svg">
<path d="M17.9816 0.941915C17.832 1.07652 17.7455 1.1772 17.6375 1.24724C16.3995 2.04831 15.2144 2.92051 14.2294 4.00721C12.6732 5.72316 11.7186 7.72473 11.6691 10.0305C11.6005 13.2698 11.6455 16.5102 11.6253 19.7506C11.6196 20.6195 11.6275 21.4994 11.4982 22.3563C11.1654 24.5712 8.84233 26.7293 6.59012 26.9624C3.39677 27.2918 1.03774 25.4095 0.349599 23.1365C0.0898581 22.2775 0.0392609 21.3363 0.0280167 20.4313C-0.00908907 17.3551 -0.00684105 14.2788 0.020145 11.2026C0.0370112 9.31812 0.372088 7.4993 1.38406 5.83916C2.43877 4.11008 3.94774 2.85594 5.72544 1.9137C9.4304 -0.0517599 13.3119 -0.5869 17.3823 0.700063C17.5622 0.756969 17.7342 0.841235 17.9805 0.941915H17.9816Z" fill="white"/>
<path d="M35.1299 2.26066C32.7663 0.83581 30.0138 -0.0166933 27.2353 0.0248922C24.5795 0.0642891 21.9652 0.92117 19.731 2.31866C17.9802 3.41411 16.4207 4.87946 15.5459 6.71688C14.1471 9.65632 14.6621 13.0652 14.6419 16.3034C14.6261 18.746 14.2629 21.3265 15.0972 23.6882C15.755 25.5508 18.2535 26.8673 20.1774 26.9482C22.0731 27.0281 23.9903 26.1154 25.0596 24.591C26.0929 23.1191 26.3043 21.2445 26.256 19.4618C26.2065 17.679 25.9288 15.8952 26.1087 14.1202C26.1222 13.6639 26.1345 13.2064 26.148 12.7501C26.1885 11.3219 26.2324 9.8741 26.6596 8.50725C27.3073 6.43563 28.8556 4.64636 30.8447 3.67457C32.2626 2.98184 33.8503 2.70278 35.4121 2.43248C35.3188 2.37338 35.2243 2.31538 35.1299 2.25847V2.26066Z" fill="#09CB6F"/>
<path d="M40.4779 10.4111C40.4397 10.0182 40.3846 9.62647 40.3014 9.23907C40.0832 8.21803 39.6593 7.2167 38.9307 6.45174C38.0885 5.5686 36.8697 5.05644 35.6339 4.98531C34.3982 4.91527 33.1535 5.26984 32.1044 5.91222C31.1205 6.51412 30.2907 7.38194 29.8409 8.42487C29.3709 9.51484 29.3327 10.7285 29.2956 11.9093C29.263 12.9675 29.2259 14.0258 29.2079 15.084C29.1798 16.707 29.1955 18.331 29.2112 19.9539C29.227 21.5418 29.1876 23.3661 30.2333 24.6793C31.1868 25.8766 32.6137 26.7422 34.171 26.9206C35.3056 27.0508 36.4682 26.8232 37.5027 26.3515C38.4787 25.9061 39.3636 25.2276 39.9236 24.3313C40.8096 22.9119 40.795 21.1478 40.7534 19.4866C40.6938 17.1075 40.6331 14.7284 40.5735 12.3503C40.5566 11.7036 40.5409 11.0535 40.4779 10.41V10.4111Z" fill="#09CB6F"/>
<path fill-rule="evenodd" clip-rule="evenodd" d="M115.007 13.7756C115.007 12.9729 115.007 12.1701 115.008 11.3674C115.009 8.82474 115.01 6.28206 114.998 3.73938C114.996 3.31808 115.114 3.18479 115.558 3.19669C116.653 3.22645 117.748 3.21098 118.843 3.19551C119.237 3.18955 119.361 3.32047 119.345 3.71558C119.309 4.68668 119.288 5.65822 119.267 6.62966C119.254 7.24044 119.241 7.85119 119.224 8.46175C119.215 8.8295 119.441 8.86996 119.724 8.87115C120.08 8.87258 120.436 8.87272 120.792 8.87286H120.792C121.622 8.8732 122.453 8.87353 123.283 8.89019C124.486 8.91518 125.682 9.01872 126.823 9.42812C129.041 10.2231 130.393 11.7726 130.92 13.9958C131.33 15.7226 131.295 17.4507 130.838 19.1751C130.219 21.5161 127.704 23.8951 125.015 24.1486C122.581 24.3781 120.146 24.3735 117.711 24.3689C116.926 24.3674 116.14 24.366 115.354 24.3724C115.001 24.3756 115.003 24.1787 115.006 23.9606L115.006 23.9494C115.007 23.9333 115.007 23.9172 115.007 23.9011C115.007 21.7101 115.007 19.5191 115.006 17.3293V13.7768L115.007 13.7756ZM119.305 15.8452C119.317 16.376 119.327 16.908 119.336 17.4388C119.348 18.2112 119.355 18.9835 119.359 19.7571C119.359 19.8847 119.352 20.0108 119.346 20.132C119.314 20.6913 119.289 21.1448 120.056 21.1448C120.781 21.1305 121.506 21.1162 122.231 21.1031C123.049 21.0877 123.894 21.0662 124.638 20.7342C125.459 20.3688 126.078 19.6464 126.428 18.836C126.778 18.0255 126.877 17.1293 126.851 16.251C126.815 15.005 126.474 13.6625 125.469 12.889C124.491 12.1356 123.14 12.0987 121.894 12.0964C121.536 12.0952 121.179 12.0943 120.822 12.0934L120.82 12.0934L120.818 12.0934L120.816 12.0934L120.814 12.0934C120.454 12.0925 120.095 12.0916 119.735 12.0904C119.649 12.0904 119.558 12.0904 119.479 12.1225C119.233 12.2225 119.203 12.545 119.213 12.8033C119.251 13.8161 119.282 14.83 119.305 15.844V15.8452ZM54.4005 24.3641H51.0598C50.9593 24.3641 50.8701 24.3651 50.7911 24.366H50.7909H50.7906H50.7904H50.7904C50.4704 24.3697 50.3165 24.3715 50.244 24.2955C50.1768 24.2251 50.1797 24.0879 50.1852 23.8234C50.187 23.7364 50.1891 23.6357 50.1891 23.5191C50.1867 18.7515 50.1867 13.9839 50.1867 9.21752V8.90571C50.2502 8.90108 50.3114 8.89545 50.3712 8.88995L50.3713 8.88994C50.4958 8.87849 50.6139 8.86763 50.7321 8.86763C52.0214 8.86933 53.3108 8.87002 54.6001 8.87071H54.6001H54.6001H54.6002H54.6002H54.6002H54.6004C58.7267 8.87291 62.8528 8.87511 66.9782 8.91048C67.9394 8.91881 68.9347 9.04496 69.8494 9.32107C71.7875 9.90541 72.7609 11.3478 72.8404 13.2544C72.9374 15.569 72.9701 17.8866 73.0027 20.2042L73.0028 20.2055C73.0158 21.1276 73.0287 22.0497 73.0458 22.9716C73.0514 23.2631 73.0496 23.5545 73.0478 23.8612C73.0468 24.0204 73.0458 24.1838 73.0458 24.3534H68.8051C68.8025 24.3079 68.799 24.2613 68.7954 24.2139C68.7876 24.1088 68.7794 23.9999 68.7794 23.8916C68.7737 23.0248 68.766 22.1581 68.7582 21.2915L68.7582 21.2895V21.2894V21.2893V21.2892V21.2891V21.2889C68.7378 19.0031 68.7173 16.7176 68.7342 14.4314C68.7452 12.9973 68.1057 12.3582 66.6273 12.1654C66.115 12.0986 65.5941 12.0923 65.073 12.0859H65.073C64.7869 12.0824 64.5007 12.079 64.2159 12.0655C63.7855 12.0452 63.6412 12.2083 63.6424 12.6367C63.6487 14.9953 63.6425 17.3539 63.6364 19.7125C63.6341 20.5815 63.6318 21.4505 63.6302 22.3195C63.6294 22.748 63.6297 23.177 63.6299 23.6253L63.6302 24.3379L59.4115 24.3379C59.4094 24.2953 59.4067 24.2507 59.4039 24.2047C59.397 24.0902 59.3895 23.9671 59.3895 23.844L59.3895 23.8354C59.3858 20.1668 59.3822 16.4981 59.3797 12.8283C59.3797 12.1357 59.3761 12.1107 58.6497 12.0976C58.0608 12.0868 57.4716 12.0849 56.8824 12.0831H56.8824H56.8824H56.8824H56.8824H56.8824C56.2396 12.0811 55.5968 12.0791 54.9544 12.0655C54.5827 12.0571 54.4641 12.219 54.4665 12.532C54.4681 12.7057 54.4737 12.8797 54.4792 13.0537C54.4864 13.279 54.4936 13.5043 54.4922 13.7292C54.4763 17.2222 54.4567 20.7164 54.4372 24.2094C54.4372 24.2262 54.4325 24.243 54.4239 24.274C54.4179 24.2956 54.41 24.324 54.4005 24.3641ZM134.964 11.1843V11.1845V11.1847V11.1849V11.1851C134.965 11.474 134.966 11.7658 134.966 12.0617L134.968 12.0594L135.125 12.0591H135.126H135.126H135.126C135.226 12.0588 135.324 12.0586 135.421 12.0594C136.188 12.0673 136.955 12.0703 137.722 12.0733C139.495 12.0803 141.268 12.0873 143.039 12.1546C145.003 12.2296 145.34 12.5675 145.702 14.1932C145.71 14.2299 145.723 14.2654 145.736 14.3007C145.749 14.3353 145.762 14.3698 145.769 14.4051C145.879 14.8871 145.804 14.9561 145.283 14.9597C144.848 14.9632 144.413 14.9662 143.978 14.9692L143.977 14.9692H143.977C142.192 14.9817 140.408 14.9942 138.623 15.0382C137.579 15.0644 136.602 15.356 135.709 15.9356C134.389 16.7936 133.961 18.0587 133.826 19.5011C133.615 21.7683 134.74 23.4749 136.979 24.1295C137.579 24.3044 138.233 24.3735 138.864 24.3782C141.368 24.3974 143.872 24.3974 146.376 24.3975C147.294 24.3975 148.213 24.3975 149.131 24.3984L149.993 24.3984C150 24.3606 150.007 24.3292 150.013 24.3017C150.023 24.2548 150.031 24.2195 150.031 24.1842L150.01 22.3486L150.01 22.3423C149.98 19.6117 149.949 16.8807 149.911 14.1504C149.905 13.7826 149.862 13.4101 149.788 13.0495C149.308 10.7407 147.385 9.11027 144.902 8.99245C143.439 8.92239 141.973 8.90259 140.507 8.8828L140.507 8.88279C139.981 8.87569 139.455 8.86859 138.929 8.85916C137.803 8.84012 136.678 8.8294 135.553 8.83178C135.518 8.83178 135.481 8.82982 135.443 8.8278C135.225 8.81631 134.974 8.80307 134.97 9.14121C134.961 9.81621 134.963 10.4918 134.964 11.1843ZM142.379 18.2765V18.261C142.651 18.261 142.923 18.2617 143.195 18.2623C143.896 18.264 144.596 18.2657 145.297 18.2563C145.641 18.2515 145.784 18.3479 145.777 18.7121C145.762 19.4059 145.786 20.1021 145.822 20.796C145.84 21.1516 145.611 21.1489 145.392 21.1463C145.374 21.1461 145.356 21.1459 145.338 21.1459C144.44 21.1447 143.543 21.1411 142.646 21.1149C141.584 21.084 140.521 21.0364 139.46 20.9804C138.686 20.94 138.335 20.696 138.178 20.1319C138.006 19.5083 138.233 18.8263 138.78 18.4895C138.985 18.3634 139.26 18.292 139.505 18.286C140.206 18.2695 140.907 18.2721 141.608 18.2746C141.865 18.2756 142.122 18.2765 142.379 18.2765ZM77.6032 12.0764V8.92142C77.655 8.91669 77.7041 8.91104 77.7513 8.9056L77.7514 8.9056C77.8466 8.89463 77.9343 8.88453 78.0226 8.88453C78.7337 8.88513 79.4447 8.88483 80.1558 8.88453C82.289 8.88364 84.4221 8.88275 86.5553 8.90595C87.6032 8.91785 88.6329 9.044 89.6148 9.49744C91.2888 10.2686 92.2426 11.5504 92.4725 13.2903C92.6346 14.5194 92.6547 15.7708 92.6747 17.0142V17.0142V17.0143V17.0143L92.6767 17.138C92.6962 18.3685 92.6975 19.5993 92.6989 20.8302C92.7 21.835 92.7011 22.8397 92.7121 23.8442C92.717 24.2513 92.5984 24.3691 92.1753 24.3679C90.5407 24.3663 88.9059 24.3715 87.2711 24.3766H87.271H87.271H87.2709C85.2857 24.3829 83.3005 24.3892 81.3156 24.3834C80.7332 24.381 80.1434 24.2552 79.5695 24.1328L79.567 24.1322C77.7499 23.7478 76.488 21.8556 76.4513 20.1537C76.3999 17.7497 77.421 16.0454 79.5572 15.3635C80.4327 15.0838 81.4073 15.0279 82.3403 14.9993C83.5288 14.9631 84.7184 14.973 85.9085 14.983H85.9086H85.9087H85.9089C86.4378 14.9874 86.9667 14.9918 87.4956 14.9922C87.5385 14.9922 87.5819 14.9933 87.6255 14.9943C87.7825 14.9982 87.9419 15.0021 88.0826 14.9565C88.1951 14.9196 88.3455 14.7423 88.3345 14.6423C88.2941 14.2472 88.2501 13.839 88.1107 13.4712C87.8417 12.7583 87.3477 12.2514 86.5039 12.2335C84.4065 12.1898 82.3091 12.1521 80.2117 12.1143C79.5126 12.1018 78.8134 12.0892 78.1143 12.0764C78.0065 12.0741 77.8993 12.0748 77.786 12.0756H77.786H77.786H77.7859C77.727 12.076 77.6663 12.0764 77.6032 12.0764ZM85.0427 18.24C84.1794 18.2507 83.3173 18.2626 82.454 18.2757C82.1618 18.2805 81.8597 18.2864 81.5919 18.4007C81.2239 18.5578 80.9659 18.9088 80.8693 19.2885C80.6137 20.281 81.115 20.9546 82.1324 20.9832L88.019 21.1439C88.1083 21.1463 88.2036 21.1463 88.2758 21.0951C88.3736 21.0237 88.3834 20.888 88.3846 20.769C88.3883 20.4381 88.3923 20.1076 88.3962 19.777C88.4002 19.4465 88.4042 19.1159 88.4079 18.7851C88.4103 18.5899 88.392 18.359 88.2208 18.259C88.1315 18.2079 88.0214 18.2067 87.9175 18.2079C86.9601 18.2162 86.0014 18.2269 85.0439 18.2388L85.0427 18.24ZM110.716 12.0582V8.91515C110.661 8.91222 110.607 8.90825 110.553 8.90435C110.455 8.89715 110.359 8.89015 110.263 8.89015L108.75 8.88616C106.394 8.87976 104.037 8.87335 101.681 8.87826C101.121 8.87945 100.559 8.92586 100.001 8.98893C98.6499 9.14127 97.5237 9.69586 96.7961 10.8538C96.1113 11.9428 95.8949 13.1424 96.1113 14.3956C96.3277 15.6476 97.5126 17.5673 99.2674 17.8457C100.284 18.0076 101.309 18.1361 102.335 18.2028C103.055 18.25 103.777 18.2569 104.5 18.2639H104.5C104.888 18.2676 105.276 18.2713 105.664 18.2813C106.098 18.292 106.506 18.3837 106.826 18.7086C107.298 19.1894 107.356 19.7809 107.191 20.3652C107.048 20.8698 106.594 21.0959 106.064 21.1102C105.304 21.1305 104.544 21.1376 103.783 21.1376H103.783C101.469 21.1364 99.1572 21.1352 96.845 21.1162C96.439 21.1126 96.2678 21.2269 96.2886 21.6446C96.3101 22.088 96.3047 22.5328 96.2993 22.9774V22.9775V22.9776C96.2974 23.1403 96.2954 23.3029 96.2947 23.4655L96.2947 23.4689C96.2911 24.3985 96.291 24.4033 97.2595 24.3961C98.0585 24.3903 98.8574 24.3854 99.6562 24.3806L99.657 24.3806L99.6578 24.3806H99.658C102.114 24.3657 104.57 24.3509 107.026 24.3069C108.36 24.2831 109.506 23.7892 110.35 22.7252C111.255 21.5851 111.506 20.2843 111.423 18.88C111.352 17.6756 110.78 16.7497 109.766 16.1201C108.888 15.575 107.898 15.2442 106.844 15.2132C106.217 15.1946 105.59 15.1931 104.963 15.1916C104.267 15.1899 103.572 15.1883 102.877 15.1632C102.373 15.1454 101.852 15.0407 101.378 14.8728C100.726 14.642 100.423 13.9696 100.531 13.2234C100.625 12.5724 100.934 12.3105 101.742 12.2034C101.782 12.1983 101.821 12.1929 101.86 12.1875L101.86 12.1875L101.86 12.1875C102.048 12.1619 102.235 12.1362 102.422 12.1332C104.247 12.1035 106.072 12.0785 107.897 12.0594C108.525 12.053 109.153 12.0547 109.795 12.0565C110.099 12.0574 110.405 12.0582 110.716 12.0582ZM179.992 8.94598V12.0688H179.469L178.408 12.0686C176.876 12.068 175.343 12.0675 173.811 12.0772C173.617 12.0785 173.425 12.1065 173.231 12.1345C173.078 12.1567 172.925 12.1789 172.772 12.1878C171.781 12.2462 171.304 12.8567 171.031 13.6921C171.006 13.7667 170.981 13.8412 170.956 13.9157C170.9 14.0801 170.845 14.2447 170.797 14.411C170.67 14.8549 170.731 14.9418 171.199 14.9477C173.009 14.9703 174.819 14.9882 176.627 15.0013C177.375 15.0062 178.122 15.0049 178.887 15.0036C179.24 15.0031 179.597 15.0025 179.958 15.0025L179.958 15.8678C179.958 16.4268 179.957 16.9726 179.958 17.5184V17.522C179.961 18.2205 179.961 18.2241 179.261 18.2217C177.92 18.2176 176.578 18.2131 175.237 18.2087L175.224 18.2086C173.878 18.2042 172.533 18.1997 171.187 18.1955C170.648 18.1931 170.593 18.2491 170.762 18.7525C170.782 18.8149 170.803 18.8776 170.823 18.9406C171.062 19.6728 171.308 20.4246 172.129 20.7424C172.625 20.9352 173.184 21.0411 173.72 21.0566C175.634 21.1125 177.552 21.122 179.468 21.1292C179.87 21.1303 180.024 21.2232 179.997 21.654C179.952 22.3927 179.969 23.136 179.985 23.8771V23.8775L179.986 23.9176C179.994 24.2306 179.922 24.3651 179.562 24.3615C178.779 24.3517 177.995 24.3507 177.212 24.3496C175.987 24.348 174.763 24.3463 173.54 24.3115C172.041 24.2687 170.571 24.014 169.294 23.1631C167.275 21.817 166.28 19.9033 166.05 17.5683C165.911 16.1509 166.011 14.7549 166.5 13.4113C167.387 10.9799 169.11 9.45416 171.77 9.0876C173.945 8.78742 176.134 8.83181 178.323 8.87618C178.841 8.8867 179.359 8.89721 179.878 8.90314C179.906 8.90314 179.934 8.91732 179.961 8.9308C179.973 8.93684 179.985 8.94275 179.996 8.94717L179.992 8.94598ZM152.714 8.87809V12.0604C152.896 12.0604 153.076 12.0597 153.254 12.059C153.64 12.0575 154.02 12.056 154.401 12.0616C155.017 12.0712 155.275 12.0203 155.383 12.1248C155.49 12.2276 155.451 12.4805 155.465 13.0887C155.481 13.8162 155.488 14.5444 155.496 15.2725C155.514 16.9875 155.533 18.7027 155.659 20.4103C155.797 22.2835 156.676 23.545 158.782 24.0865C159.983 24.3962 161.2 24.3845 162.417 24.3728C162.809 24.369 163.201 24.3652 163.592 24.3722C163.685 24.3745 163.86 24.1567 163.865 24.0365C163.883 23.5725 163.886 23.1077 163.89 22.6427C163.892 22.2635 163.895 21.8842 163.906 21.5052C163.914 21.2088 163.792 21.1267 163.508 21.1148C162.719 21.0815 161.929 21.0351 161.143 20.9661C160.937 20.9482 160.71 20.8708 160.542 20.7554C159.912 20.3246 159.81 19.6367 159.792 18.9786C159.757 17.6892 159.744 16.3993 159.732 15.1095C159.723 14.2672 159.715 13.425 159.7 12.5829C159.694 12.2009 159.82 12.0533 160.222 12.0616C161.163 12.0827 162.105 12.0823 163.048 12.082C163.171 12.0819 163.293 12.0819 163.416 12.0819C163.449 12.0821 163.483 12.0846 163.518 12.0872C163.695 12.1002 163.885 12.1142 163.887 11.8331C163.892 11.1376 163.891 10.4427 163.89 9.73162C163.89 9.46203 163.89 9.19013 163.89 8.91498C163.824 8.91144 163.759 8.90747 163.695 8.90355C163.544 8.89432 163.398 8.88535 163.251 8.88285C163.013 8.87906 162.775 8.87497 162.536 8.87088C161.725 8.85696 160.915 8.84304 160.104 8.8412C159.774 8.84001 159.704 8.70076 159.706 8.4068C159.719 7.15656 159.72 5.90558 159.721 4.65502C159.721 4.32114 159.722 3.98729 159.722 3.6535C159.723 3.55929 159.716 3.46508 159.709 3.36562C159.706 3.31556 159.702 3.26417 159.699 3.21077L155.495 3.21077C155.49 3.25759 155.485 3.30142 155.479 3.34324C155.468 3.42794 155.458 3.50442 155.458 3.5809C155.459 3.9641 155.459 4.34729 155.458 4.73047C155.458 5.97649 155.457 7.22234 155.484 8.4675C155.491 8.82929 155.386 8.89118 155.06 8.88404C154.512 8.87133 153.964 8.8737 153.403 8.87612C153.176 8.8771 152.946 8.87809 152.714 8.87809Z" fill="#09CB6F"/>
</svg>
