<svg width="181" height="28" viewBox="0 0 181 28" fill="none" xmlns="http://www.w3.org/2000/svg">
<path d="M18.0815 0.976801C17.9311 1.11639 17.8441 1.2208 17.7355 1.29343C16.4906 2.12417 15.2989 3.02868 14.3085 4.15562C12.7436 5.93512 11.7837 8.01084 11.7339 10.402C11.665 13.7613 11.7102 17.1217 11.6898 20.4821C11.6842 21.3832 11.6921 22.2957 11.5621 23.1843C11.2274 25.4813 8.89145 27.7193 6.62673 27.961C3.41564 28.3026 1.04351 26.3506 0.351541 23.9935C0.0903573 23.1026 0.039479 22.1266 0.0281724 21.188C-0.00913956 17.9978 -0.00687906 14.8077 0.0202569 11.6175C0.0372169 9.66323 0.374156 7.77705 1.39175 6.05542C2.45232 4.2623 3.96967 2.96172 5.75725 1.98458C9.48279 -0.0536769 13.3858 -0.608637 17.4789 0.725991C17.6598 0.785005 17.8327 0.872391 18.0804 0.976801H18.0815Z" fill="#0DD275"/>
<path d="M35.3253 2.3445C32.9486 0.866874 30.1807 -0.0172031 27.3869 0.0259227C24.7162 0.0667786 22.0874 0.955396 19.8408 2.40465C18.0804 3.54067 16.5121 5.06029 15.6325 6.96576C14.2259 10.0141 14.7438 13.5492 14.7234 16.9074C14.7076 19.4404 14.3424 22.1165 15.1813 24.5656C15.8428 26.4972 18.3551 27.8625 20.2897 27.9464C22.196 28.0293 24.1238 27.0828 25.199 25.5019C26.2381 23.9755 26.4507 22.0314 26.4021 20.1827C26.3523 18.3339 26.073 16.4841 26.2539 14.6433C26.2675 14.17 26.2799 13.6956 26.2935 13.2224C26.3342 11.7414 26.3783 10.2399 26.808 8.82244C27.4592 6.6741 29.0162 4.81855 31.0163 3.81077C32.4421 3.09239 34.0386 2.80299 35.6091 2.52268C35.5152 2.46139 35.4202 2.40124 35.3253 2.34223V2.3445Z" fill="#09CB6F"/>
<path d="M40.7027 10.797C40.6643 10.3895 40.6089 9.98326 40.5252 9.58151C40.3059 8.52266 39.8796 7.48424 39.1469 6.69095C38.3001 5.77509 37.0744 5.24397 35.8318 5.1702C34.5892 5.09757 33.3376 5.46527 32.2827 6.13145C31.2933 6.75564 30.4589 7.6556 30.0066 8.73715C29.534 9.8675 29.4956 11.1261 29.4583 12.3506C29.4255 13.4481 29.3882 14.5455 29.3701 15.6429C29.3418 17.326 29.3576 19.0102 29.3735 20.6932C29.3893 22.3399 29.3497 24.2318 30.4012 25.5936C31.36 26.8352 32.7948 27.7329 34.3608 27.9179C35.5017 28.0529 36.6708 27.8169 37.711 27.3277C38.6924 26.8658 39.5822 26.1622 40.1453 25.2327C41.0363 23.7608 41.0216 21.9314 40.9797 20.2086C40.9198 17.7413 40.8587 15.2741 40.7988 12.808C40.7819 12.1373 40.766 11.4632 40.7027 10.7958V10.797Z" fill="#09CB6F"/>
<path fill-rule="evenodd" clip-rule="evenodd" d="M115.646 14.2847C115.646 13.452 115.646 12.6193 115.646 11.7866C115.648 9.15 115.649 6.51336 115.637 3.87672C115.635 3.43982 115.754 3.30159 116.2 3.31393C117.301 3.34479 118.402 3.32874 119.503 3.3127C119.899 3.30653 120.024 3.44229 120.008 3.85204C119.971 4.85891 119.95 5.86624 119.93 6.87347V6.87388L119.93 6.87705C119.917 7.50945 119.904 8.14182 119.887 8.77399C119.877 9.15536 120.104 9.19732 120.389 9.19855C120.747 9.20004 121.105 9.20018 121.463 9.20033H121.463C122.298 9.20068 123.133 9.20102 123.968 9.2183C125.177 9.24422 126.38 9.35159 127.527 9.77615C129.758 10.6006 131.118 12.2075 131.648 14.513C132.06 16.3038 132.024 18.0958 131.565 19.8842C130.942 22.3118 128.414 24.779 125.71 25.0419C123.262 25.2798 120.814 25.2751 118.365 25.2703C117.575 25.2688 116.785 25.2673 115.995 25.2739C115.64 25.2773 115.642 25.0731 115.645 24.8469C115.645 24.8265 115.646 24.8058 115.646 24.7851C115.646 22.513 115.646 20.2409 115.644 17.9699V14.2859L115.646 14.2847ZM119.968 16.4309C119.98 16.9814 119.99 17.533 119.998 18.0835C120.011 18.8845 120.018 19.6855 120.022 20.4877C120.022 20.6197 120.015 20.7502 120.009 20.8757V20.8758V20.876V20.8761V20.8763V20.8764C119.977 21.4565 119.951 21.9268 120.723 21.9268C121.452 21.9119 122.181 21.8971 122.91 21.8836C123.733 21.8675 124.582 21.8453 125.33 21.501C126.156 21.1221 126.778 20.3729 127.13 19.5324C127.482 18.6919 127.581 17.7626 127.556 16.8518C127.52 15.5596 127.177 14.1674 126.166 13.3652C125.182 12.5839 123.824 12.5457 122.571 12.5432C122.209 12.542 121.847 12.541 121.485 12.5401C121.123 12.5392 120.762 12.5383 120.4 12.537C120.313 12.537 120.222 12.537 120.142 12.5704C119.895 12.674 119.866 13.0085 119.875 13.2763C119.914 14.3266 119.944 15.3781 119.968 16.4297V16.4309ZM54.6217 25.4033H51.2624C51.1612 25.4033 51.0715 25.4043 50.9919 25.4053H50.9918H50.9917H50.9917H50.9916H50.9916C50.6729 25.4091 50.518 25.4109 50.4442 25.3345C50.3745 25.2621 50.3774 25.1197 50.383 24.8425L50.383 24.8425C50.3848 24.7523 50.3869 24.6479 50.3869 24.527C50.3845 19.5828 50.3845 14.6387 50.3845 9.69574V9.37238C50.4483 9.36757 50.5099 9.36173 50.57 9.35603L50.5701 9.35602L50.5701 9.35602L50.5701 9.35602L50.5702 9.35602C50.6954 9.34415 50.8141 9.33288 50.9329 9.33288C52.2294 9.33465 53.5259 9.33536 54.8224 9.33607H54.8225H54.8225H54.8225H54.8225H54.8226H54.8227C58.9719 9.33836 63.121 9.34064 67.2693 9.37732C68.2358 9.38596 69.2367 9.51678 70.1564 9.80311C72.1053 10.4091 73.0841 11.9049 73.164 13.8821C73.2616 16.2824 73.2944 18.6859 73.3273 21.0894C73.3403 22.0461 73.3534 23.0028 73.3706 23.9593C73.3762 24.2613 73.3744 24.5634 73.3725 24.8813V24.8813V24.8814V24.8814V24.8815V24.8818C73.3716 25.0469 73.3706 25.2163 73.3706 25.3922H69.1063C69.1036 25.345 69.1001 25.2967 69.0966 25.2476C69.0887 25.1386 69.0805 25.0256 69.0805 24.9133C69.0748 24.0138 69.067 23.1144 69.0592 22.215C69.0386 19.8443 69.0181 17.4738 69.035 15.1027C69.0461 13.6155 68.403 12.9528 66.9164 12.7528C66.4013 12.6835 65.8774 12.6769 65.3535 12.6704H65.3535C65.0657 12.6668 64.778 12.6632 64.4916 12.6492C64.0588 12.6282 63.9137 12.7973 63.915 13.2416C63.9212 15.6875 63.9151 18.1334 63.9089 20.5793C63.9066 21.4805 63.9043 22.3817 63.9027 23.2829C63.9019 23.7266 63.9021 24.1708 63.9024 24.6349V24.6351V24.6353V24.6355V24.6356V24.6371L63.9027 25.3761L59.6606 25.3761C59.6584 25.3319 59.6557 25.2857 59.6529 25.238C59.6459 25.1193 59.6384 24.9916 59.6384 24.8639C59.6347 21.0565 59.631 17.249 59.6286 13.4403C59.6286 12.722 59.6249 12.6961 58.8945 12.6825C58.3023 12.6713 57.7099 12.6694 57.1174 12.6675H57.1174H57.1174H57.1174H57.1174H57.1173C56.471 12.6654 55.8247 12.6633 55.1787 12.6492C54.8049 12.6405 54.6856 12.8084 54.6881 13.133C54.6897 13.3131 54.6952 13.4936 54.7008 13.674C54.708 13.9076 54.7153 14.1413 54.7139 14.3746C54.6979 17.9969 54.6782 21.6205 54.6586 25.2428C54.6586 25.2603 54.6539 25.2777 54.6452 25.3099C54.6392 25.3322 54.6313 25.3617 54.6217 25.4033ZM135.715 11.5975V11.5976V11.5977V11.5979V11.598C135.715 11.8977 135.716 12.2004 135.716 12.5074L135.719 12.5049L135.877 12.5046C135.978 12.5044 136.076 12.5041 136.174 12.5049C136.945 12.5131 137.716 12.5162 138.488 12.5194C140.27 12.5266 142.053 12.5339 143.834 12.6037C145.809 12.6814 146.148 13.0319 146.512 14.7178C146.52 14.7558 146.533 14.7926 146.546 14.8292L146.546 14.8293L146.546 14.8294C146.559 14.8652 146.572 14.9009 146.58 14.9375C146.69 15.4374 146.614 15.5089 146.09 15.5126C145.653 15.5163 145.215 15.5194 144.778 15.5226C142.983 15.5355 141.188 15.5484 139.394 15.5941C138.344 15.6212 137.361 15.9236 136.464 16.5247C135.136 17.4145 134.705 18.7265 134.57 20.2223C134.357 22.5734 135.489 24.3433 137.74 25.0221C138.344 25.2035 139.002 25.2751 139.636 25.28C142.153 25.2999 144.671 25.2999 147.19 25.3C148.113 25.3 149.036 25.3 149.96 25.301H150.827C150.833 25.2624 150.84 25.2301 150.846 25.2019L150.846 25.2011L150.847 25.2007L150.847 25.2006C150.857 25.152 150.865 25.1154 150.865 25.0788L150.844 23.1789C150.813 20.3438 150.782 17.5082 150.744 14.6734C150.738 14.292 150.695 13.9057 150.62 13.5318C150.138 11.1374 148.204 9.44659 145.708 9.32441C144.237 9.25175 142.763 9.23122 141.288 9.21069C140.759 9.20333 140.23 9.19596 139.701 9.18618C138.569 9.16643 137.438 9.15532 136.306 9.15779C136.271 9.15779 136.234 9.15576 136.196 9.15366C135.976 9.14174 135.724 9.12801 135.72 9.47868C135.711 10.1787 135.713 10.8794 135.715 11.5975ZM143.17 18.9523V18.9363C143.443 18.9363 143.717 18.937 143.99 18.9376H143.991H143.991H143.991H143.991C144.696 18.9394 145.4 18.9411 146.105 18.9313C146.451 18.9264 146.594 19.0264 146.587 19.404C146.572 20.1236 146.597 20.8456 146.633 21.5651C146.651 21.9339 146.42 21.9311 146.201 21.9284C146.182 21.9282 146.164 21.928 146.146 21.928C145.243 21.9267 144.341 21.923 143.439 21.8959C142.371 21.8638 141.302 21.8144 140.235 21.7564C139.457 21.7144 139.104 21.4614 138.946 20.8764C138.773 20.2297 139.002 19.5225 139.551 19.1732C139.758 19.0424 140.034 18.9684 140.28 18.9622C140.985 18.945 141.69 18.9477 142.395 18.9504H142.395C142.653 18.9513 142.912 18.9523 143.17 18.9523ZM78.034 12.5224V9.25059C78.0862 9.24568 78.1355 9.23982 78.183 9.23418C78.2787 9.22281 78.3669 9.21233 78.4557 9.21233C79.1707 9.21295 79.8857 9.21264 80.6008 9.21233C82.7458 9.2114 84.8908 9.21048 87.0358 9.23455C88.0896 9.24689 89.1249 9.37771 90.1123 9.84794C91.7956 10.6477 92.7547 11.9769 92.9859 13.7813C93.1489 15.0559 93.1691 16.3537 93.1892 17.6432L93.1912 17.7714C93.2108 19.0473 93.2122 20.3235 93.2136 21.5997V21.6006C93.2147 22.6425 93.2158 23.6844 93.2269 24.7261C93.2318 25.1482 93.1125 25.2704 92.6871 25.2691C91.0434 25.2675 89.3995 25.2728 87.7556 25.2782H87.7556H87.7555H87.7555C85.7592 25.2848 83.7629 25.2913 81.767 25.2852C81.1814 25.2827 80.5884 25.1523 80.0113 25.0253L80.0087 25.0248C78.1815 24.6261 76.9126 22.6638 76.8757 20.8989C76.824 18.4058 77.8507 16.6385 79.9989 15.9313C80.8792 15.6412 81.8592 15.5832 82.7974 15.5536C83.9925 15.516 85.1887 15.5263 86.3853 15.5366H86.3854C86.9174 15.5412 87.4494 15.5458 87.9814 15.5462C88.0245 15.5462 88.0681 15.5473 88.112 15.5484C88.2699 15.5524 88.4302 15.5565 88.5716 15.5092C88.6847 15.4709 88.836 15.287 88.8249 15.1833C88.7843 14.7736 88.7401 14.3503 88.5999 13.9689C88.3294 13.2296 87.8326 12.7039 86.9842 12.6853C84.875 12.64 82.7658 12.6009 80.6566 12.5618C79.9537 12.5487 79.2508 12.5357 78.5479 12.5224C78.4396 12.52 78.3319 12.5208 78.218 12.5216H78.2179H78.2179H78.2178C78.1585 12.522 78.0975 12.5224 78.034 12.5224ZM85.5148 18.9143C84.6467 18.9254 83.7799 18.9377 82.9118 18.9513C82.6179 18.9563 82.3142 18.9624 82.0449 19.0809C81.6748 19.2438 81.4154 19.6079 81.3182 20.0016C81.0612 21.0309 81.5654 21.7295 82.5884 21.7591L88.5077 21.9257C88.5974 21.9282 88.6933 21.9282 88.7659 21.8751C88.8643 21.8011 88.8741 21.6604 88.8753 21.537C88.879 21.1938 88.883 20.8511 88.887 20.5083V20.5082V20.5081C88.891 20.1654 88.895 19.8226 88.8987 19.4796C88.9011 19.2772 88.8827 19.0377 88.7106 18.934C88.6208 18.881 88.5101 18.8797 88.4056 18.881C87.4428 18.8896 86.4788 18.9007 85.5161 18.9131L85.5148 18.9143ZM111.331 12.5038V9.24429C111.276 9.24125 111.221 9.23714 111.167 9.23309C111.068 9.22563 110.972 9.21837 110.875 9.21837L109.354 9.21422H109.354H109.354C106.985 9.20758 104.615 9.20095 102.246 9.20603C101.683 9.20726 101.117 9.2554 100.557 9.32081C99.1978 9.47878 98.0654 10.0539 97.3338 11.2548C96.6452 12.3841 96.4275 13.6281 96.6452 14.9277C96.8628 16.2261 98.0543 18.2168 99.8188 18.5056C100.841 18.6735 101.872 18.8068 102.904 18.8759C103.628 18.9249 104.354 18.9321 105.08 18.9393H105.08C105.471 18.9431 105.861 18.947 106.251 18.9574C106.687 18.9685 107.098 19.0635 107.419 19.4004C107.894 19.899 107.953 20.5124 107.787 21.1184C107.643 21.6417 107.187 21.8762 106.653 21.891C105.889 21.912 105.124 21.9194 104.36 21.9194H104.359C102.033 21.9182 99.7079 21.917 97.3829 21.8972C96.9747 21.8935 96.8026 22.012 96.8235 22.4452C96.8451 22.9051 96.8397 23.3664 96.8342 23.8276C96.8323 23.9962 96.8303 24.1649 96.8296 24.3335L96.8296 24.3371C96.8259 25.3011 96.8259 25.306 97.7998 25.2986C98.6038 25.2926 99.4078 25.2876 100.212 25.2825H100.212H100.212C102.682 25.2671 105.151 25.2517 107.621 25.2061C108.962 25.1814 110.114 24.6692 110.963 23.5658C111.873 22.3835 112.126 21.0345 112.042 19.5782C111.971 18.3292 111.395 17.369 110.376 16.7161C109.493 16.1508 108.497 15.8077 107.437 15.7756C106.807 15.7563 106.177 15.7548 105.546 15.7532H105.546C104.846 15.7515 104.147 15.7498 103.449 15.7238C102.942 15.7053 102.418 15.5967 101.941 15.4226C101.286 15.1832 100.981 14.4859 101.089 13.7121C101.184 13.037 101.495 12.7654 102.307 12.6544C102.347 12.649 102.387 12.6434 102.426 12.6378C102.614 12.6112 102.803 12.5846 102.991 12.5815C104.826 12.5507 106.661 12.5248 108.496 12.505C109.128 12.4983 109.759 12.5001 110.405 12.502C110.71 12.5029 111.019 12.5038 111.331 12.5038ZM180.992 9.27613V12.5146H180.466L179.399 12.5144C177.858 12.5138 176.317 12.5133 174.777 12.5233C174.582 12.5247 174.388 12.5537 174.194 12.5827C174.04 12.6058 173.886 12.6288 173.731 12.6381C172.735 12.6985 172.256 13.3317 171.98 14.1981C171.956 14.2753 171.931 14.3525 171.905 14.4297L171.905 14.43C171.85 14.6005 171.794 14.7712 171.746 14.9435C171.618 15.4039 171.679 15.494 172.15 15.5002C173.97 15.5236 175.79 15.5421 177.608 15.5557C178.36 15.5608 179.112 15.5595 179.881 15.5582H179.882C180.236 15.5575 180.594 15.5569 180.958 15.5569L180.957 16.4544V16.4645C180.957 17.0406 180.957 17.6033 180.958 18.166V18.1697C180.96 18.8942 180.96 18.8979 180.257 18.8954C178.904 18.8911 177.55 18.8865 176.197 18.8818C174.844 18.8772 173.491 18.8726 172.138 18.8683C171.596 18.8658 171.54 18.9238 171.71 19.4459C171.731 19.5097 171.751 19.574 171.771 19.6385L171.772 19.6409C172.012 20.4002 172.259 21.1798 173.085 21.5094C173.584 21.7094 174.146 21.8192 174.684 21.8353C176.61 21.8933 178.538 21.9031 180.465 21.9105C180.869 21.9118 181.024 22.008 180.997 22.4548C180.951 23.2209 180.968 23.9918 180.985 24.7604L180.986 24.8022C180.993 25.1268 180.921 25.2663 180.559 25.2626C179.771 25.2525 178.984 25.2514 178.196 25.2503C176.965 25.2486 175.734 25.2469 174.504 25.2108C172.996 25.1663 171.518 24.9022 170.234 24.0198C168.204 22.6239 167.203 20.6393 166.972 18.2178C166.832 16.7479 166.933 15.3002 167.425 13.9068C168.316 11.3854 170.049 9.80313 172.724 9.423C174.911 9.11169 177.113 9.15773 179.313 9.20375L179.313 9.20375C179.834 9.21466 180.356 9.22556 180.877 9.2317C180.905 9.2317 180.934 9.24641 180.961 9.26039C180.973 9.26666 180.984 9.27278 180.996 9.27737L180.992 9.27613ZM153.562 9.20593V12.5062C153.745 12.5061 153.926 12.5054 154.105 12.5047C154.493 12.5031 154.875 12.5015 155.258 12.5074C155.873 12.5173 156.134 12.4653 156.244 12.5706C156.354 12.6756 156.314 12.9371 156.328 13.5725C156.344 14.327 156.352 15.0821 156.36 15.8373C156.378 17.6158 156.396 19.3945 156.523 21.1652C156.662 23.1078 157.546 24.4161 159.664 24.9776C160.872 25.2988 162.095 25.2866 163.319 25.2745C163.713 25.2705 164.107 25.2666 164.501 25.2738C164.594 25.2763 164.77 25.0505 164.775 24.9258C164.793 24.4446 164.796 23.9626 164.8 23.4805C164.802 23.0872 164.805 22.6938 164.816 22.3007C164.824 21.9934 164.701 21.9082 164.416 21.8959C163.623 21.8613 162.829 21.8132 162.038 21.7416C161.83 21.7231 161.603 21.6429 161.433 21.5231C160.8 21.0764 160.698 20.363 160.679 19.6805C160.644 18.3434 160.631 17.0058 160.619 15.6683C160.61 14.7947 160.602 13.9213 160.587 13.048C160.581 12.6518 160.708 12.4987 161.112 12.5074C162.058 12.5292 163.006 12.5288 163.953 12.5285C164.077 12.5284 164.2 12.5284 164.324 12.5284C164.356 12.5286 164.391 12.5312 164.426 12.5339C164.604 12.5474 164.795 12.5619 164.797 12.2704C164.802 11.5494 164.801 10.829 164.8 10.0919C164.8 9.81204 164.8 9.52979 164.8 9.24419C164.733 9.24051 164.668 9.2364 164.604 9.23233C164.452 9.22276 164.305 9.21346 164.158 9.21086C163.918 9.20694 163.678 9.20269 163.439 9.19845C162.623 9.18401 161.808 9.16958 160.993 9.16767C160.661 9.16644 160.591 9.02203 160.593 8.71719C160.606 7.42013 160.607 6.1223 160.608 4.82492C160.608 4.47919 160.609 4.13348 160.609 3.78783C160.61 3.69015 160.603 3.59246 160.596 3.48933C160.592 3.4374 160.589 3.38409 160.586 3.32871L156.358 3.32871C156.354 3.37726 156.348 3.4227 156.343 3.46607C156.332 3.55391 156.322 3.63323 156.322 3.71255C156.322 4.10997 156.322 4.5074 156.322 4.90481C156.321 6.19694 156.32 7.4889 156.347 8.78013C156.355 9.15533 156.249 9.2195 155.921 9.2121C155.37 9.19892 154.819 9.20138 154.254 9.20389C154.026 9.2049 153.796 9.20593 153.562 9.20593Z" fill="#09CB6F"/>
</svg>
